#!OML:ASF H:\MichaelJackson\Top Level 1\Subject 1\Session 1\male.ASF
:FULLY-SPECIFIED
:DEGREES
379
root 4.9275 16.4865 -17.1012 -2.12861 28.1351 -6.79485
lowerback 3.07407 1.11752 1.82455
upperback 2.90454 1.53378 0.587895
thorax 1.28787 0.798403 -0.447622
lowerneck -3.05912 -8.73512 0.990444
upperneck 7.05302 -12.1191 5.18607
head 3.08829 -5.81039 1.04924
rclavicle -1.86858e-014 -3.97569e-015
rhumerus -32.6116 15.5076 -89.6052
rradius 88.1522
rwrist 6.96159
rhand -43.5822 -39.1436
rfingers 7.12502
rthumb -16.419 291.531
lclavicle -1.86858e-014 -3.97569e-015
lhumerus -55.7986 -3.05239 94.8147
lradius 58.2959
lwrist 34.0957
lhand -23.8708 12.3534
lfingers 7.12502
lthumb 2.6021 42.3173
rfemur -21.6375 -7.44083 17.3581
rtibia 38.2857
rfoot -10.2798 -9.97631
rtoes -23.4801
lfemur -30.5468 23.2603 2.07923
ltibia 93.4871
lfoot 3.5887 -10.6749
ltoes 16.8392
380
root 4.89456 16.4849 -16.9796 -2.05609 27.1207 -6.89913
lowerback 3.21975 1.04867 2.18867
upperback 2.91191 1.45295 0.551717
thorax 1.223 0.763918 -0.689879
lowerneck -3.07586 -8.49258 1.06083
upperneck 6.85304 -11.7791 5.07262
head 3.00056 -5.65033 1.0198
rclavicle -1.99779e-014 0
rhumerus -32.35 15.2611 -90.4603
rradius 87.4564
rwrist 7.21406
rhand -42.2553 -38.3631
rfingers 7.12502
rthumb -15.1411 292.211
lclavicle -1.99779e-014 0
lhumerus -55.4905 -2.70068 94.733
lradius 58.381
lwrist 34.4633
lhand -23.8907 12.6082
lfingers 7.12502
lthumb 2.5829 42.5723
rfemur -21.5306 -7.08558 17.812
rtibia 38.3449
rfoot -11.1206 -9.39079
rtoes -23.2358
lfemur -32.4812 24.5757 0.519808
ltibia 94.8554
lfoot 2.67013 -10.9779
ltoes 16.4965
381
root 4.86592 16.4811 -16.8595 -2.00394 26.2207 -7.04323
lowerback 3.34769 0.959656 2.5827
upperback 2.9268 1.34628 0.554044
thorax 1.17375 0.716704 -0.908149
lowerneck -3.1076 -8.26082 1.10638
upperneck 6.65274 -11.4522 4.94541
head 2.91754 -5.49731 0.988309
rclavicle 1.23246e-014 2.38542e-015
rhumerus -32.2072 15.0708 -91.2402
rradius 86.8626
rwrist 7.3266
rhand -40.8079 -37.4989
rfingers 7.12502
rthumb -13.7465 292.975
lclavicle 1.23246e-014 2.38542e-015
lhumerus -55.1783 -2.43987 94.7143
lradius 58.3476
lwrist 34.7047
lhand -23.8547 12.9821
lfingers 7.12502
lthumb 2.61771 42.9458
rfemur -21.46 -7.0377 18.2906
rtibia 38.4854
rfoot -11.9235 -8.65808
rtoes -22.9427
lfemur -34.4753 25.5526 -1.16328
ltibia 95.8561
lfoot 1.85677 -11.2684
ltoes 16.3087
382
root 4.84155 16.477 -16.7386 -1.96671 25.3636 -7.19423
lowerback 3.44296 0.886543 2.94888
upperback 2.95563 1.25966 0.596733
thorax 1.15509 0.679103 -1.0688
lowerneck -3.15533 -8.05459 1.12647
upperneck 6.47427 -11.1592 4.80423
head 2.84729 -5.36104 0.95366
rclavicle -1.59028e-015 7.15625e-015
rhumerus -32.2033 14.9235 -91.9211
rradius 86.3842
rwrist 7.29986
rhand -39.286 -36.6011
rfingers 7.12502
rthumb -12.2794 293.779
lclavicle -1.59028e-015 7.15625e-015
lhumerus -54.8514 -2.29743 94.7887
lradius 58.19
lwrist 34.8718
lhand -23.7975 13.4032
lfingers 7.12502
lthumb 2.67294 43.3662
rfemur -21.399 -7.20926 18.7692
rtibia 38.6775
rfoot -12.7108 -7.79745
rtoes -22.5473
lfemur -36.4206 26.2549 -2.92494
ltibia 96.4612
lfoot 1.1891 -11.5158
ltoes 15.9909
383
root 4.81987 16.4726 -16.6167 -1.91103 24.5185 -7.32553
lowerback 3.50539 0.844219 3.26606
upperback 2.98163 1.21219 0.655602
thorax 1.15133 0.660269 -1.18556
lowerneck -3.21832 -7.87732 1.13677
upperneck 6.33496 -10.9077 4.66547
head 2.79559 -5.24381 0.918094
rclavicle 6.30147e-014 -7.15625e-015
rhumerus -32.344 14.7927 -92.5271
rradius 86.0041
rwrist 7.16303
rhand -37.7394 -35.6926
rfingers 7.12502
rthumb -10.7879 294.604
lclavicle 6.30147e-014 -7.15625e-015
lhumerus -54.5176 -2.30101 94.9352
lradius 57.9237
lwrist 35.0186
lhand -23.7575 13.8314
lfingers 7.12502
lthumb 2.71154 43.7939
rfemur -21.3606 -7.51862 19.2274
rtibia 38.8992
rfoot -13.4798 -6.84053
rtoes -22.0826
lfemur -38.2952 26.7298 -4.73626
ltibia 96.6635
lfoot 0.706051 -11.6873
ltoes 15.5292
